<?xml version="1.0" standalone="no"?>
<!DOCTYPE svg PUBLIC "-//W3C//DTD SVG 20010904//EN"
 "http://www.w3.org/TR/2001/REC-SVG-20010904/DTD/svg10.dtd">
<svg version="1.0" xmlns="http://www.w3.org/2000/svg"
 width="2048.000000pt" height="2048.000000pt" viewBox="0 0 2048.000000 2048.000000"
 preserveAspectRatio="xMidYMid meet">
<metadata>
Created by potrace 1.14, written by Peter Selinger 2001-2017
</metadata>
<g transform="translate(0.000000,2048.000000) scale(0.100000,-0.100000)"
fill="#000000" stroke="none">
<path d="M9522 20142 c-6 -20 -14 -53 -17 -72 -4 -19 -11 -53 -16 -75 -10 -46
-23 -106 -38 -185 -5 -30 -24 -120 -41 -200 -16 -80 -44 -212 -60 -295 -17
-82 -34 -168 -39 -190 -5 -22 -15 -67 -22 -100 -14 -70 -29 -85 -80 -85 -21 0
-59 -4 -86 -9 -26 -6 -86 -15 -133 -21 -130 -18 -482 -78 -575 -99 -22 -5 -65
-14 -95 -21 -30 -7 -71 -16 -90 -20 -40 -9 -258 -67 -307 -81 -135 -38 -166
-47 -188 -54 -21 -6 -55 22 -79 64 -6 11 -59 89 -117 173 -58 84 -155 225
-214 313 -144 211 -270 393 -298 428 l-22 28 -40 -16 c-22 -9 -64 -28 -93 -41
-29 -13 -55 -24 -57 -24 -3 0 -25 -9 -50 -20 -25 -11 -65 -29 -90 -40 -25 -11
-47 -20 -50 -20 -2 0 -28 -11 -57 -24 -30 -14 -78 -34 -108 -46 -30 -11 -68
-27 -85 -35 -16 -7 -79 -34 -140 -59 -118 -50 -125 -53 -197 -85 -26 -12 -50
-21 -53 -21 -3 0 -25 -9 -50 -20 -75 -33 -127 -56 -188 -81 -54 -21 -58 -25
-52 -49 7 -28 16 -79 40 -220 29 -168 32 -183 55 -290 24 -113 32 -155 48
-240 6 -30 25 -127 42 -214 17 -88 32 -178 33 -200 l2 -40 -184 -113 c-169
-104 -508 -330 -591 -393 -19 -15 -82 -62 -140 -106 -58 -43 -138 -104 -178
-136 l-72 -57 -149 99 c-450 299 -569 377 -598 395 -17 11 -49 32 -70 46 -116
79 -214 141 -218 138 -52 -48 -1005 -1006 -1005 -1011 0 -3 22 -42 48 -85 62
-100 98 -164 76 -135 -24 32 -34 27 -34 -15 0 -28 14 -60 53 -123 28 -47 60
-97 70 -110 10 -14 83 -124 163 -245 79 -121 149 -227 155 -236 6 -9 29 -44
50 -77 28 -44 43 -60 55 -55 8 3 -27 -55 -80 -128 -183 -257 -506 -744 -506
-763 0 -2 -18 -34 -41 -71 -45 -74 -55 -92 -119 -208 l-43 -79 -46 5 c-25 3
-59 8 -76 11 -59 13 -132 26 -275 51 -80 14 -167 30 -195 36 -59 11 -139 26
-212 40 -80 14 -164 30 -208 39 -56 12 -144 28 -181 34 -34 5 -35 3 -103 -166
-5 -13 -16 -39 -24 -58 -8 -19 -41 -100 -72 -180 -31 -80 -64 -161 -72 -180
-8 -19 -19 -44 -23 -55 -4 -11 -15 -36 -23 -55 -9 -19 -34 -82 -57 -140 -23
-58 -48 -118 -55 -135 -7 -16 -39 -95 -71 -175 -31 -80 -61 -149 -66 -154 -14
-17 -9 -25 29 -51 63 -42 117 -85 106 -85 -5 0 -14 5 -21 12 -17 17 -24 5 -29
-49 -4 -38 -1 -53 16 -74 18 -23 497 -352 674 -463 34 -21 64 -41 67 -45 3 -4
36 -26 73 -50 57 -37 70 -42 79 -30 11 16 3 -72 -12 -131 -12 -46 -30 -126
-59 -262 -22 -102 -52 -264 -71 -388 -6 -41 -15 -97 -20 -125 -5 -27 -14 -95
-20 -150 -7 -55 -17 -131 -24 -170 l-11 -70 -80 -17 c-44 -9 -168 -35 -275
-57 -107 -23 -220 -46 -250 -52 -30 -6 -75 -15 -100 -20 -25 -6 -65 -14 -90
-19 -25 -5 -65 -13 -90 -19 -25 -5 -70 -14 -100 -20 -30 -6 -75 -16 -100 -22
-25 -6 -63 -14 -86 -17 l-41 -7 1 -720 1 -719 45 -12 c26 -7 36 -12 23 -13
-20 -1 -23 -7 -23 -40 0 -43 31 -95 70 -117 14 -7 140 -36 280 -64 140 -28
273 -55 295 -60 22 -5 125 -25 228 -45 130 -24 207 -44 250 -65 82 -38 93 -48
100 -95 4 -22 11 -65 17 -95 5 -30 14 -82 20 -115 5 -33 14 -82 20 -110 5 -27
14 -75 19 -105 27 -144 97 -438 141 -590 36 -123 36 -137 6 -161 -48 -38 -168
-122 -331 -233 -88 -60 -273 -187 -412 -283 l-252 -174 30 -72 c17 -40 38 -97
49 -127 10 -30 21 -64 25 -75 6 -16 5 -17 -4 -5 -32 45 14 -102 77 -241 11
-24 38 -89 60 -144 22 -55 56 -134 75 -175 19 -41 38 -86 42 -100 4 -14 20
-52 35 -85 15 -33 40 -91 55 -130 15 -38 42 -101 59 -140 18 -38 38 -85 45
-103 20 -48 57 -70 111 -67 44 3 349 59 485 89 446 99 589 117 650 83 63 -35
65 -37 227 -307 78 -131 313 -481 358 -535 15 -16 42 -53 62 -82 61 -85 70
-94 86 -81 33 28 -145 -250 -599 -935 -22 -32 -39 -63 -39 -69 0 -5 22 -33 49
-61 27 -29 61 -68 77 -87 27 -33 27 -34 2 -12 -22 20 -26 21 -32 7 -14 -37 -5
-83 23 -121 16 -21 215 -225 443 -451 l414 -413 42 0 c52 0 52 0 232 118 334
219 506 333 515 340 16 13 179 117 185 118 3 0 18 6 33 12 42 18 113 14 155
-7 20 -11 64 -40 97 -65 33 -25 94 -69 135 -98 41 -28 77 -54 80 -58 19 -27
537 -360 708 -456 45 -25 89 -53 98 -62 13 -12 17 -13 24 -2 12 19 -4 -118
-29 -250 -5 -25 -14 -71 -20 -102 -6 -32 -16 -84 -22 -115 -6 -32 -15 -78 -19
-103 -4 -25 -13 -72 -20 -105 -7 -33 -16 -80 -20 -105 -4 -25 -13 -72 -19
-105 -46 -241 -47 -223 17 -255 53 -27 81 -47 48 -34 -23 9 -36 -10 -36 -54 0
-74 39 -105 230 -178 52 -19 106 -41 120 -47 14 -5 27 -11 30 -12 3 -1 23 -10
45 -20 22 -9 74 -30 117 -46 42 -15 85 -33 95 -39 25 -14 220 -90 233 -90 5 0
10 -4 10 -10 0 -5 3 -9 8 -8 4 1 18 -3 32 -9 101 -43 269 -103 285 -103 37 0
91 57 176 187 47 70 91 138 99 149 8 12 64 95 125 185 60 90 112 166 115 169
3 3 17 23 30 45 101 172 192 254 282 255 38 0 181 -30 230 -49 22 -8 284 -66
491 -107 37 -8 149 -25 250 -39 261 -37 286 -43 340 -81 28 -20 47 -29 48 -21
1 14 14 -34 30 -108 5 -27 14 -68 19 -90 4 -22 13 -65 19 -95 6 -30 24 -120
41 -200 17 -80 45 -217 62 -305 17 -88 32 -166 34 -172 3 -10 159 -13 737 -13
l734 0 10 58 c6 31 32 161 58 287 26 127 51 248 55 270 18 93 64 308 79 365 7
28 9 30 10 11 l1 -24 23 20 c24 23 87 57 87 48 0 -3 8 -1 18 4 9 5 114 23 233
40 118 17 246 37 285 45 121 24 357 75 419 91 33 9 69 17 80 19 24 5 42 10
115 31 73 21 177 22 215 2 17 -8 48 -35 71 -59 39 -41 165 -221 479 -683 117
-172 131 -190 165 -213 38 -25 59 -25 130 6 14 5 66 26 115 46 50 20 97 40
105 45 9 5 62 27 118 50 56 22 110 45 120 51 25 14 226 95 247 100 6 1 15 5
20 10 6 4 42 20 80 35 39 15 97 40 130 55 33 15 74 33 92 39 67 27 100 89 79
150 -13 38 -12 39 13 51 65 29 70 36 59 82 -5 24 -14 68 -20 98 -5 30 -14 73
-18 95 -4 22 -13 67 -20 100 -7 33 -16 78 -20 100 -4 22 -13 67 -20 100 -7 33
-16 80 -21 105 -6 25 -14 65 -19 90 -5 25 -14 68 -20 95 -19 94 -51 317 -45
323 3 3 5 -7 5 -21 0 -15 2 -27 5 -27 8 0 169 93 175 101 3 3 20 14 39 24 49
25 249 151 377 237 121 83 154 106 274 193 147 108 175 125 210 135 86 24 136
8 295 -97 239 -158 270 -179 283 -191 8 -7 28 -20 45 -28 18 -9 52 -31 77 -48
25 -17 77 -51 115 -75 39 -24 72 -47 75 -51 6 -8 160 -105 169 -106 3 0 14 -4
24 -8 37 -17 73 9 226 158 276 270 693 694 712 723 29 44 21 128 -11 108 -20
-12 0 18 44 67 22 23 48 53 59 66 l21 22 -22 30 c-12 16 -22 31 -22 34 0 2
-82 127 -182 277 -101 151 -185 279 -188 284 -3 6 -40 64 -84 130 -102 155
-119 183 -141 225 -15 28 -15 33 -2 22 13 -11 19 -8 44 25 15 21 36 47 45 57
10 11 30 38 45 60 16 23 34 47 41 54 36 39 295 428 418 630 157 257 187 283
316 278 62 -3 507 -82 623 -111 111 -27 420 -75 447 -69 46 9 81 63 132 200
27 71 52 134 57 139 4 6 21 47 37 90 17 44 42 107 57 140 15 33 46 107 67 165
22 58 43 110 48 115 4 6 24 55 44 110 21 54 45 117 55 140 28 60 34 85 22 85
-6 0 -11 -8 -12 -17 0 -12 -2 -13 -6 -5 -3 7 -1 18 5 25 5 7 12 26 16 42 7 30
32 100 68 189 16 40 17 51 6 61 -7 7 -224 154 -482 326 -258 173 -481 323
-497 334 -35 24 -36 45 -8 140 11 38 24 86 29 105 5 19 16 62 24 95 23 90 86
382 98 450 5 33 13 80 18 105 5 25 13 72 19 105 5 33 15 87 21 120 6 33 15 83
19 110 7 41 9 44 10 17 0 -19 4 -32 9 -30 98 51 155 70 278 93 144 27 328 64
354 70 17 4 462 95 466 95 2 0 14 12 28 27 33 35 46 111 23 128 -14 10 -11 14
23 25 l40 13 0 726 c0 685 -1 727 -17 728 -16 1 -53 8 -168 34 -40 9 -82 18
-185 38 -30 6 -75 15 -100 21 -25 6 -67 14 -95 20 -27 5 -138 28 -245 50 -107
22 -232 48 -278 56 -46 9 -89 23 -97 31 -8 8 -15 31 -15 52 0 20 -4 62 -9 92
-5 30 -14 95 -20 144 -7 50 -16 115 -21 145 -5 30 -16 100 -25 155 -20 122
-70 370 -96 475 -15 63 -29 119 -39 160 -5 22 -14 58 -20 80 -30 122 -36 165
-21 156 4 -3 48 22 97 56 49 33 151 103 228 155 138 95 277 191 435 300 96 67
141 114 141 148 0 34 -18 77 -30 70 -26 -16 -6 13 23 33 17 12 45 33 60 46
l28 23 -31 79 c-18 43 -43 103 -56 132 -13 29 -24 55 -24 57 0 5 -9 25 -59
137 -11 26 -21 50 -21 53 0 2 -11 28 -24 57 -13 29 -45 105 -71 168 -26 63
-53 130 -61 148 -17 39 -39 91 -58 135 -7 17 -23 53 -35 79 -11 26 -21 50 -21
53 0 2 -11 28 -24 58 -14 29 -34 75 -44 103 -20 48 -20 49 -63 48 -24 0 -123
-17 -219 -37 -153 -33 -265 -55 -442 -88 -64 -12 -132 -26 -193 -39 -27 -6
-72 -15 -100 -20 -27 -6 -71 -14 -97 -20 -102 -21 -137 -26 -146 -21 -7 5
-159 256 -198 326 -37 68 -291 441 -409 600 -138 187 -177 245 -172 258 4 7 6
6 6 -4 1 -9 9 -23 19 -32 17 -16 24 -8 122 144 58 88 115 174 128 192 35 48
209 313 253 384 39 63 57 122 43 144 -5 9 -11 7 -21 -6 -38 -54 15 47 87 163
l33 54 -504 504 c-318 318 -509 502 -518 499 -7 -3 -242 -156 -521 -340 -279
-184 -513 -335 -519 -335 -7 0 -42 24 -79 53 -148 118 -452 336 -597 429 -182
117 -402 250 -545 330 -19 11 -39 23 -43 28 -9 8 2 82 42 293 6 31 16 83 22
115 6 31 15 77 19 102 5 25 14 72 20 105 12 59 20 102 40 208 6 28 17 95 25
147 26 175 33 215 40 231 8 21 -6 30 -90 63 -38 15 -86 35 -105 43 -19 8 -44
19 -55 23 -11 4 -36 15 -56 24 -20 8 -89 36 -155 62 -65 25 -143 57 -172 70
-29 13 -58 24 -65 24 -7 0 -17 4 -22 8 -6 5 -30 17 -55 26 -25 10 -61 24 -80
33 -19 8 -44 18 -55 23 -20 7 -60 24 -100 41 -93 41 -275 112 -295 115 -23 5
-49 -31 -365 -506 l-340 -511 -35 4 c-32 4 -105 21 -205 49 -82 22 -102 27
-200 48 -55 12 -118 26 -140 31 -141 32 -541 96 -738 117 -37 4 -73 14 -81 22
-8 8 -24 65 -36 125 -40 202 -51 260 -60 300 -4 22 -18 87 -30 145 -12 58 -26
123 -30 145 -33 168 -38 190 -60 293 -13 56 -29 135 -36 179 l-6 33 -713 0
-712 0 -11 -38z m579 -1564 c-10 -24 -49 -110 -86 -193 l-67 -150 3 -125 4
-125 -51 -3 -51 -3 -6 77 c-4 42 -7 98 -7 123 0 40 -14 71 -96 220 -52 95 -98
179 -101 187 -4 11 7 14 53 14 l59 0 64 -126 c35 -69 67 -122 71 -117 5 4 30
60 56 123 26 63 51 121 57 128 5 7 32 12 63 12 l53 0 -18 -42z m688 6 c101
-51 125 -119 112 -318 -8 -124 -12 -141 -39 -189 -85 -151 -322 -139 -398 21
-30 65 -18 328 20 399 54 105 191 143 305 87z m-1219 -43 c0 -55 -6 -60 -73
-62 -23 -1 -53 -4 -67 -8 l-26 -6 27 -255 c15 -140 26 -257 24 -259 -9 -8
-105 -13 -105 -5 0 19 -51 490 -55 500 -2 7 -29 8 -85 2 -45 -5 -84 -8 -85 -6
-2 2 -5 26 -6 53 l-4 50 190 21 c105 12 207 22 228 23 l37 1 0 -49z m1719 9
c233 -29 214 -22 206 -78 -4 -26 -9 -49 -10 -51 -2 -2 -68 4 -145 14 -77 10
-143 16 -145 14 -4 -5 -25 -153 -21 -156 1 -2 56 -10 122 -19 65 -8 120 -17
122 -19 2 -2 0 -24 -3 -49 -8 -54 -4 -53 -157 -32 -54 7 -98 10 -98 7 0 -3 -7
-53 -15 -111 -8 -58 -15 -111 -15 -117 0 -14 -77 -18 -97 -5 -9 6 -4 77 23
302 20 162 37 301 39 308 5 15 -2 16 194 -8z m-2294 -62 c20 -111 92 -584 89
-587 -1 -2 -27 -4 -55 -5 l-53 -1 -47 300 c-26 165 -44 303 -41 307 7 7 43 14
79 17 17 1 23 -6 28 -31z m3055 -69 c107 -23 196 -43 198 -44 4 -4 -9 -81 -17
-93 -4 -7 -31 -5 -86 8 -44 10 -81 18 -82 16 -1 -1 -25 -108 -53 -237 -28
-128 -54 -242 -57 -252 -4 -16 -11 -17 -46 -12 -23 4 -47 10 -53 14 -8 4 6 82
43 249 30 134 52 249 49 257 -2 7 -36 19 -76 26 -40 7 -74 18 -77 25 -2 6 1
31 7 54 10 36 14 41 33 36 12 -3 110 -24 217 -47z m-3347 20 c41 -11 42 -14
25 -71 -10 -33 -15 -38 -32 -33 -59 17 -127 17 -171 1 -50 -19 -65 -39 -65
-85 0 -46 28 -58 151 -64 111 -5 146 -16 186 -59 30 -32 43 -71 43 -126 0 -80
-55 -143 -155 -177 -66 -23 -187 -23 -242 0 -24 9 -43 19 -43 20 0 2 9 24 19
48 l20 45 38 -13 c74 -27 186 -12 234 31 19 17 26 69 11 90 -17 25 -56 34
-155 34 -91 0 -108 3 -137 23 -53 36 -73 70 -78 136 -7 96 37 160 134 195 46
17 164 20 217 5z m3773 -131 c2 -2 -13 -59 -33 -126 -20 -67 -34 -125 -31
-127 6 -6 199 -65 213 -65 6 0 25 53 44 118 19 64 37 120 40 124 6 7 84 -12
96 -24 5 -5 -161 -586 -170 -596 -4 -5 -95 20 -99 27 -2 3 9 49 25 101 49 162
57 142 -71 179 -61 18 -113 31 -114 29 -2 -1 -18 -52 -36 -113 -17 -60 -35
-114 -39 -118 -9 -9 -101 12 -101 23 0 9 171 583 176 592 4 6 90 -15 100 -24z
m-4368 -12 c62 -32 105 -106 105 -181 0 -55 -22 -108 -53 -127 -19 -12 -12
-20 87 -120 59 -59 105 -109 102 -111 -2 -3 -29 -12 -59 -20 l-55 -16 -105
104 -105 104 -42 -12 c-24 -6 -43 -16 -43 -22 0 -5 15 -61 34 -123 l34 -113
-22 -8 c-11 -5 -35 -12 -53 -15 l-32 -7 -20 68 c-75 255 -149 528 -145 532 3
3 60 22 127 42 132 40 202 47 245 25z m-529 -153 c7 -21 14 -43 17 -49 3 -7
-52 -32 -136 -64 -77 -29 -140 -58 -140 -64 0 -15 40 -119 49 -129 5 -4 57 10
116 32 59 23 113 41 119 41 6 0 19 -21 28 -46 l16 -45 -27 -11 c-14 -5 -64
-24 -111 -40 -47 -17 -89 -34 -94 -39 -5 -5 -2 -26 7 -51 9 -24 21 -55 26 -70
l10 -26 128 48 c70 26 135 51 143 54 12 5 20 -6 33 -41 10 -25 14 -50 10 -53
-5 -4 -91 -38 -192 -75 -136 -50 -185 -64 -191 -55 -15 24 -213 571 -208 575
5 5 369 144 379 145 3 0 11 -17 18 -37z m5624 -72 c97 -37 180 -70 183 -73 3
-4 -20 -78 -31 -95 0 -1 -59 20 -130 48 -72 27 -136 50 -144 52 -8 1 -24 -25
-41 -70 l-28 -72 105 -41 c57 -22 108 -40 113 -40 19 0 21 -22 4 -66 -13 -34
-21 -43 -33 -38 -71 28 -224 84 -226 82 -6 -5 -55 -141 -53 -143 2 -1 63 -24
137 -51 73 -27 135 -54 138 -61 2 -6 -4 -29 -14 -51 l-18 -41 -170 65 c-93 35
-180 68 -192 74 -21 9 -20 14 79 272 55 145 104 275 110 291 5 15 15 27 21 27
7 0 92 -31 190 -69z m-6153 -103 c0 -12 56 -551 63 -611 3 -24 -2 -31 -34 -48
-21 -10 -40 -19 -42 -19 -13 0 -447 483 -440 489 4 4 28 16 51 26 44 19 44 19
60 -2 32 -40 286 -323 288 -320 1 1 -11 103 -27 226 -16 124 -28 226 -26 227
1 1 20 11 42 22 46 24 65 27 65 10z m7033 -320 c54 -67 47 -173 -16 -244 -68
-78 -140 -85 -266 -24 -45 22 -84 40 -87 40 -2 0 -27 -46 -55 -102 -28 -57
-53 -104 -54 -106 -3 -3 -84 35 -93 43 -2 2 60 130 138 284 l140 282 132 -68
c94 -49 140 -79 161 -105z m-3523 122 c1328 -63 2555 -447 3665 -1147 1451
-917 2551 -2320 3098 -3954 444 -1326 502 -2785 166 -4150 -411 -1672 -1393
-3154 -2779 -4192 -1085 -814 -2357 -1311 -3710 -1452 -470 -48 -1060 -48
-1530 0 -1941 201 -3715 1144 -4965 2640 -1289 1541 -1903 3534 -1704 5525 93
932 333 1764 750 2600 803 1607 2128 2849 3796 3558 983 418 2133 623 3213
572z m-3945 -333 c77 -149 141 -274 143 -277 4 -10 -91 -51 -99 -43 -12 12
-279 528 -279 539 0 9 67 51 85 53 6 0 73 -122 150 -272z m-246 -129 c83 -141
151 -261 151 -266 0 -6 -21 -22 -47 -36 l-47 -27 -218 125 c-120 68 -218 123
-218 121 0 -2 48 -84 106 -182 58 -98 106 -182 107 -187 2 -9 -82 -61 -87 -55
-3 3 -301 509 -312 531 -5 7 79 58 95 58 10 0 356 -197 419 -238 12 -8 22 -12
22 -9 0 3 -50 89 -111 192 -61 102 -108 189 -105 192 17 18 82 51 87 45 3 -4
74 -123 158 -264z m8004 207 c20 -10 37 -22 37 -26 0 -4 -29 -56 -65 -116 -60
-100 -64 -109 -48 -121 34 -25 184 -114 187 -111 2 2 32 52 67 112 35 59 67
107 72 107 4 0 25 -12 47 -26 36 -24 38 -28 27 -48 -7 -12 -79 -133 -161 -269
l-149 -247 -36 22 c-20 11 -40 25 -45 29 -5 5 19 55 56 118 l66 109 -101 62
c-55 33 -103 57 -107 53 -4 -4 -35 -54 -69 -110 l-62 -102 -42 26 c-23 14 -44
27 -46 29 -2 2 59 106 135 231 186 308 184 305 192 301 4 -2 24 -12 45 -23z
m-8604 -460 c135 -194 153 -229 153 -296 0 -145 -193 -265 -320 -200 -58 30
-91 71 -313 392 l-18 26 44 32 44 31 126 -180 c126 -179 157 -210 207 -210 30
0 83 33 104 65 33 50 16 89 -119 282 l-125 177 37 28 c20 15 41 28 47 28 5 0
65 -79 133 -175z m9144 119 c21 -14 36 -31 34 -38 -4 -10 -332 -494 -342 -505
-3 -3 -46 22 -87 50 -11 7 335 519 350 519 4 0 24 -12 45 -26z m233 -160 c19
-15 34 -31 34 -36 0 -5 -70 -101 -154 -212 l-155 -204 120 -91 c65 -51 119
-95 119 -99 0 -4 -13 -22 -29 -41 -20 -25 -32 -31 -43 -25 -8 5 -83 60 -166
123 l-150 115 186 247 c103 137 191 248 195 249 5 0 24 -12 43 -26z m427 -339
l39 -33 -203 -241 -202 -240 -38 30 c-22 17 -39 35 -39 40 0 11 391 479 399
479 3 -1 23 -16 44 -35z m-10682 -342 c90 -102 167 -191 171 -196 3 -6 57 35
120 91 l113 100 33 -31 c18 -17 31 -37 30 -44 -2 -7 -70 -71 -153 -143 -117
-101 -152 -127 -161 -117 -10 10 -341 391 -382 440 -14 16 -13 21 18 52 19 19
37 35 41 35 4 0 80 -84 170 -187z m10975 80 c95 -92 113 -115 122 -153 15 -60
0 -117 -44 -168 -42 -49 -89 -72 -149 -72 -59 0 -96 19 -171 92 l-62 59 -78
-85 c-43 -48 -83 -86 -89 -86 -6 0 -26 15 -44 34 l-32 33 211 227 c117 124
215 226 219 226 3 0 56 -48 117 -107z m-11186 -355 c162 -72 297 -133 300
-135 2 -2 -14 -22 -36 -44 l-40 -40 -57 26 -57 25 -80 -80 c-44 -44 -80 -85
-80 -90 0 -6 11 -32 24 -59 l25 -48 -37 -37 c-21 -20 -40 -36 -43 -36 -3 0
-68 135 -144 301 l-137 300 23 25 c12 13 27 24 33 24 6 0 144 -59 306 -132z
m11563 -15 c155 -163 177 -203 156 -286 -28 -113 -154 -185 -256 -146 -15 5
-60 42 -100 81 l-71 71 -29 -21 c-15 -11 -53 -46 -83 -76 -30 -31 -59 -56 -65
-56 -7 0 -25 17 -42 38 l-31 38 146 134 c80 74 182 170 226 212 45 43 82 77
83 78 0 0 30 -30 66 -67z m-12043 -239 c22 -9 40 -20 40 -25 0 -4 -14 -24 -30
-43 -30 -33 -33 -34 -85 -29 -52 5 -56 4 -90 -30 -39 -39 -45 -78 -21 -125 14
-27 162 -159 203 -180 31 -17 85 -15 112 4 46 32 60 111 28 152 -12 15 41 87
64 87 8 0 25 -22 38 -48 47 -95 24 -199 -60 -270 -74 -64 -173 -69 -254 -14
-69 48 -197 164 -222 202 -37 55 -44 145 -14 202 25 50 75 101 116 119 42 18
127 17 175 -2z m-828 -146 c-8 -8 -9 -4 -5 13 4 13 8 18 11 10 2 -7 -1 -18 -6
-23z m13258 -59 c0 -10 -465 -399 -476 -399 -11 1 -59 64 -59 78 0 5 106 98
235 207 l235 197 32 -38 c18 -20 33 -41 33 -45z m162 -187 l35 -48 -97 -214
c-124 -278 -117 -256 -77 -229 17 13 97 72 177 132 l145 108 32 -38 c18 -21
33 -40 33 -43 -1 -9 -487 -365 -500 -365 -7 0 -26 19 -42 41 l-30 42 87 198
c126 288 119 270 103 258 -48 -39 -339 -254 -342 -254 -2 0 -16 18 -31 40 -18
25 -25 44 -19 50 8 8 487 369 491 370 0 0 17 -22 35 -48z m-12842 -162 c131
-102 239 -189 240 -195 0 -5 -15 -27 -33 -47 l-32 -37 -228 178 c-125 97 -235
184 -243 193 -15 15 -14 20 12 57 16 22 32 40 36 38 5 -1 116 -85 248 -187z
m-281 -125 c7 -7 1 -25 -17 -52 -22 -36 -32 -43 -59 -43 -49 0 -81 -16 -103
-52 -27 -45 -26 -90 5 -126 41 -49 202 -153 245 -159 33 -5 43 -1 74 28 48 44
57 98 26 147 -26 42 -49 51 -67 26 -8 -10 -23 -30 -33 -44 l-18 -24 -38 29
c-22 15 -40 29 -42 31 -5 3 119 174 127 174 5 0 39 -22 77 -49 93 -65 128
-126 122 -211 -5 -75 -46 -143 -112 -187 -40 -27 -58 -33 -102 -33 -69 0 -98
12 -209 90 -153 106 -185 148 -185 242 1 87 51 166 135 212 33 18 157 18 174
1z m13597 -394 c57 -91 104 -168 104 -172 0 -8 -67 -49 -79 -49 -5 0 -42 53
-82 117 -41 64 -77 121 -80 126 -5 6 -115 -56 -136 -76 -1 -2 27 -50 62 -107
36 -58 65 -107 65 -111 0 -3 -18 -18 -40 -33 l-40 -26 -27 42 c-14 24 -46 73
-70 110 l-43 68 -62 -41 c-35 -22 -62 -45 -60 -51 1 -5 37 -64 78 -130 83
-131 83 -123 16 -159 -18 -10 -25 -10 -36 2 -25 26 -207 321 -204 330 5 14
502 328 517 326 8 -1 60 -76 117 -166z m-13929 -102 c60 -22 234 -133 267
-169 64 -71 72 -149 24 -240 -56 -106 -148 -150 -252 -122 -50 14 -239 127
-278 166 -61 61 -77 154 -41 237 23 51 74 106 118 125 36 16 123 18 162 3z
m14139 -300 c72 -44 125 -148 128 -248 l1 -66 -50 0 -50 0 -6 66 c-11 127 -93
205 -159 151 -28 -23 -29 -67 -1 -156 41 -133 21 -206 -69 -255 -60 -34 -127
-32 -180 3 -80 53 -140 177 -140 291 l0 65 38 0 c20 0 42 -4 48 -8 6 -4 14
-36 17 -70 12 -144 108 -237 180 -174 22 20 22 65 -3 136 -43 127 -34 201 33
248 71 51 149 57 213 17z m-14046 -359 l40 -20 -91 -183 c-50 -100 -93 -183
-94 -185 -2 -2 -129 60 -284 138 l-281 140 25 50 25 50 232 -116 c206 -103
233 -114 244 -100 6 9 38 68 70 131 33 63 63 115 67 115 4 0 26 -9 47 -20z
m14410 -316 c11 -25 20 -49 20 -54 0 -5 -79 -74 -176 -154 -96 -80 -170 -146
-162 -146 7 0 110 9 228 20 118 11 217 16 221 12 8 -10 41 -94 37 -97 -6 -6
-595 -46 -627 -43 -28 2 -36 9 -48 40 -15 37 -14 38 14 62 15 13 127 110 248
214 121 105 221 191 223 191 1 1 12 -20 22 -45z m-14915 -70 c63 -25 133 -59
155 -75 102 -74 114 -222 26 -325 -79 -92 -160 -98 -338 -24 -66 27 -135 61
-154 75 -97 74 -106 221 -20 321 77 91 158 97 331 28z m15145 -510 c8 -26 9
-49 4 -54 -5 -4 -137 -53 -292 -108 l-284 -100 -13 32 c-32 78 -55 62 257 174
156 55 290 101 299 101 11 1 21 -14 29 -45z m-15292 -94 c125 -41 222 -78 222
-84 0 -7 -7 -33 -15 -57 l-15 -45 -245 -49 c-134 -28 -241 -53 -237 -56 4 -4
95 -35 202 -69 107 -34 196 -63 197 -64 6 -5 -26 -91 -35 -94 -11 -3 -573 176
-583 187 -13 13 23 102 44 111 12 5 119 28 237 50 118 23 222 43 230 46 8 3
-77 36 -190 73 -194 64 -205 69 -203 92 1 13 6 36 12 51 l10 27 73 -23 c40
-13 173 -56 296 -96z m15337 -190 c85 -53 136 -209 104 -322 -5 -21 -12 -38
-15 -38 -3 0 -25 5 -50 11 -44 11 -45 13 -38 43 33 146 -54 270 -138 198 -15
-13 -18 -34 -18 -142 0 -115 -2 -130 -23 -161 -45 -68 -150 -97 -223 -63 -77
37 -134 153 -134 273 0 56 14 141 24 141 1 0 23 -7 49 -16 44 -15 46 -18 39
-42 -4 -15 -7 -57 -6 -93 2 -111 56 -183 126 -166 39 10 47 42 41 170 -5 106
-4 118 16 150 44 71 174 101 246 57z m-15595 -416 c157 -37 287 -68 288 -70 6
-4 -8 -78 -17 -92 -6 -10 -30 -8 -112 12 -57 13 -112 26 -123 28 -16 2 -22
-11 -42 -92 -36 -145 -43 -132 97 -164 l121 -28 -7 -37 c-11 -62 -16 -72 -33
-67 -9 3 -145 35 -302 72 -157 36 -287 68 -289 70 -6 5 20 104 27 104 4 -1 61
-14 127 -30 66 -15 121 -27 123 -25 2 2 16 53 32 114 l28 111 -37 9 c-20 6
-78 19 -128 31 -51 12 -93 26 -93 31 0 6 5 30 11 55 9 34 15 43 28 40 9 -3
144 -35 301 -72z m15538 -219 c155 -23 284 -44 286 -46 2 -2 7 -20 11 -39 l6
-35 -275 -177 c-152 -98 -280 -178 -285 -178 -4 0 -11 18 -15 39 -3 22 -8 45
-11 53 -3 8 15 25 50 46 40 24 54 38 51 50 -2 9 -14 61 -26 114 l-21 97 -47 6
c-26 4 -53 7 -61 8 -14 2 -21 19 -34 85 l-7 33 48 -7 c26 -3 174 -25 330 -49z
m-15798 -364 c0 -58 -13 -82 -52 -98 -96 -38 -107 -152 -19 -197 37 -20 250
-51 285 -42 49 12 76 49 76 102 0 41 -5 51 -38 83 -34 33 -37 39 -31 78 3 24
8 46 12 49 21 22 129 -64 153 -122 23 -54 18 -133 -12 -193 -50 -99 -131 -126
-306 -102 -140 20 -196 40 -244 85 -104 100 -76 280 55 348 64 33 121 38 121
9z m16154 -13 c18 -91 27 -78 -110 -169 l-125 -83 143 -41 143 -42 8 -52 c5
-29 7 -55 4 -58 -3 -2 -89 23 -191 56 -103 34 -200 61 -218 61 -17 0 -75 -7
-130 -16 -55 -9 -101 -14 -103 -12 -2 2 -7 26 -10 54 l-7 50 123 18 124 19
165 118 c91 64 168 118 172 118 4 1 10 -9 12 -21z m-226 -603 c168 -47 309
-88 314 -91 4 -3 8 -22 8 -44 0 -32 -4 -40 -27 -48 -16 -6 -149 -69 -298 -141
-194 -94 -271 -127 -277 -118 -4 6 -8 33 -8 58 l0 45 56 24 56 23 -6 51 c-3
28 -8 81 -12 118 l-6 67 -55 12 c-43 10 -57 18 -64 36 -13 34 -11 93 2 93 7 0
149 -38 317 -85z m-16120 67 c10 -7 10 -37 -1 -155 -7 -81 -12 -147 -12 -148
0 0 154 -15 156 -14 1 0 6 56 13 125 12 138 13 138 83 125 35 -6 35 -7 29 -48
-3 -23 -8 -81 -12 -128 l-6 -86 73 -6 c41 -2 76 -3 77 -2 2 2 10 70 17 150 8
81 15 148 17 149 2 1 24 1 51 -2 35 -3 47 -8 47 -21 0 -27 -31 -375 -34 -386
-4 -10 -610 36 -621 47 -5 5 23 372 30 396 5 13 72 16 93 4z m-33 -622 l0 -85
260 -6 c143 -3 261 -7 263 -8 2 0 2 -24 0 -52 l-3 -52 -254 2 c-140 1 -258 4
-263 7 -4 3 -8 -36 -8 -86 l0 -91 -52 3 -53 3 0 58 c1 31 2 134 3 228 l2 170
53 -3 52 -3 0 -85z m15988 55 c20 -14 37 -28 37 -30 0 -2 -10 -24 -22 -47 -19
-35 -23 -59 -23 -126 0 -79 1 -85 28 -108 34 -29 56 -30 89 -4 21 16 29 36 43
114 9 52 25 109 34 127 23 42 91 79 145 79 54 0 125 -36 153 -78 29 -43 47
-133 38 -191 -8 -56 -49 -151 -66 -151 -11 0 -79 38 -79 45 0 1 9 22 20 46 35
77 21 195 -25 213 -60 23 -96 -12 -114 -106 -28 -148 -59 -197 -139 -218 -152
-40 -259 95 -232 293 8 56 53 167 68 167 4 0 24 -11 45 -25z m1344 -1361 c-3
-3 -12 -4 -19 -1 -8 3 -5 6 6 6 11 1 17 -2 13 -5z m-18090 -20 c-3 -3 -12 -4
-19 -1 -8 3 -5 6 6 6 11 1 17 -2 13 -5z m110 -20 c-3 -3 -12 -4 -19 -1 -8 3
-5 6 6 6 11 1 17 -2 13 -5z m220 -176 c-2 -13 -4 -3 -4 22 0 25 2 35 4 23 2
-13 2 -33 0 -45z m10 -60 c-3 -7 -5 -2 -5 12 0 14 2 19 5 13 2 -7 2 -19 0 -25z
m17906 -2260 c-9 -24 -20 -47 -25 -53 -5 -5 -4 2 1 18 6 15 15 38 21 52 5 14
12 25 15 25 3 0 -3 -19 -12 -42z m-18534 0 c6 -18 7 -28 2 -23 -10 12 -25 55
-18 55 3 0 10 -15 16 -32z m39 -99 c-3 -8 -7 -3 -11 10 -4 17 -3 21 5 13 5 -5
8 -16 6 -23z m18454 -1 c-8 -8 -9 -4 -5 13 4 13 8 18 11 10 2 -7 -1 -18 -6
-23z m-18429 -48 c3 -11 2 -18 -3 -15 -4 3 -10 14 -13 25 -3 11 -2 18 3 15 4
-3 10 -14 13 -25z m61 -146 c3 -8 2 -12 -4 -9 -6 3 -10 10 -10 16 0 14 7 11
14 -7z m20 -50 c3 -8 2 -12 -4 -9 -6 3 -10 10 -10 16 0 14 7 11 14 -7z m18249
1 c-3 -9 -8 -14 -10 -11 -3 3 -2 9 2 15 9 16 15 13 8 -4z m-18176 -182 c-3 -2
-12 15 -22 39 -28 69 -27 78 0 19 14 -29 24 -55 22 -58z m18134 80 c-12 -20
-14 -14 -5 12 4 9 9 14 11 11 3 -2 0 -13 -6 -23z m-20 -50 c-12 -20 -14 -14
-5 12 4 9 9 14 11 11 3 -2 0 -13 -6 -23z m-18081 -98 c0 -5 -5 -3 -10 5 -5 8
-10 20 -10 25 0 6 5 3 10 -5 5 -8 10 -19 10 -25z m20 -50 c0 -5 -5 -3 -10 5
-5 8 -10 20 -10 25 0 6 5 3 10 -5 5 -8 10 -19 10 -25z m18003 5 c-3 -12 -8
-19 -11 -16 -5 6 5 36 12 36 2 0 2 -9 -1 -20z m-20 -50 c-3 -12 -8 -19 -11
-16 -5 6 5 36 12 36 2 0 2 -9 -1 -20z m-20 -50 c-3 -11 -10 -23 -16 -27 -5 -3
-8 -2 -5 3 3 5 8 17 11 27 9 24 16 22 10 -3z m-1320 -7 c-7 -2 -21 -2 -30 0
-10 3 -4 5 12 5 17 0 24 -2 18 -5z m-16580 -43 c3 -11 2 -18 -3 -15 -4 3 -10
14 -13 25 -3 11 -2 18 3 15 4 -3 10 -14 13 -25z m16704 24 c-3 -3 -12 -4 -19
-1 -8 3 -5 6 6 6 11 1 17 -2 13 -5z m1170 -36 c-3 -8 -6 -5 -6 6 -1 11 2 17 5
13 3 -3 4 -12 1 -19z m-17837 -82 c0 -6 -7 2 -15 18 -8 15 -15 33 -15 40 0 6
7 -2 15 -18 8 -15 15 -33 15 -40z m17812 22 c-8 -8 -9 -4 -5 13 4 13 8 18 11
10 2 -7 -1 -18 -6 -23z m-20 -50 c-8 -8 -9 -4 -5 13 4 13 8 18 11 10 2 -7 -1
-18 -6 -23z m-17769 -18 c3 -11 2 -18 -3 -15 -4 3 -10 14 -13 25 -3 11 -2 18
3 15 4 -3 10 -14 13 -25z m294 -26 c-3 -3 -12 -4 -19 -1 -8 3 -5 6 6 6 11 1
17 -2 13 -5z m17350 0 c-3 -3 -12 -4 -19 -1 -8 3 -5 6 6 6 11 1 17 -2 13 -5z
m-17630 -26 c-3 -8 -6 -5 -6 6 -1 11 2 17 5 13 3 -3 4 -12 1 -19z m1377 6 c3
-8 2 -12 -4 -9 -6 3 -10 10 -10 16 0 14 7 11 14 -7z m317 -491 c13 -16 12 -17
-3 -4 -10 7 -18 15 -18 17 0 8 8 3 21 -13z m424 -2293 c21 -22 37 -40 34 -40
-3 0 -23 18 -44 40 -21 22 -37 40 -34 40 3 0 23 -18 44 -40z m201 -202 l29
-33 -32 29 c-31 28 -38 36 -30 36 2 0 16 -15 33 -32z m7428 -315 c3 -115 9
-287 12 -384 l7 -176 -64 -6 c-35 -3 -65 -4 -66 -3 -2 1 -7 136 -12 300 -5
163 -11 299 -14 302 -3 3 -23 -6 -45 -20 -22 -14 -43 -22 -46 -19 -3 4 -6 34
-6 67 l0 61 58 37 c51 33 77 41 148 46 21 2 21 -3 28 -205z m-1597 182 c93
-28 151 -118 140 -220 -8 -74 -42 -133 -161 -275 -58 -68 -102 -127 -100 -130
3 -2 62 -9 132 -15 l127 -10 -4 -60 c-1 -33 -4 -61 -6 -63 -3 -4 -394 27 -423
33 -22 5 -23 9 -16 63 7 55 11 62 143 220 153 184 171 211 171 264 0 52 -27
78 -83 78 -47 0 -69 -15 -85 -60 -8 -22 -14 -24 -58 -22 -76 5 -85 9 -78 40
34 139 152 201 301 157z m595 -25 c34 -18 77 -61 96 -95 14 -25 18 -69 20
-256 4 -252 -2 -290 -51 -346 -43 -48 -85 -64 -172 -64 -108 0 -174 39 -210
123 -19 47 -22 442 -3 515 13 54 67 113 118 131 42 14 169 9 202 -8z m550 10
c48 -14 97 -55 114 -97 20 -46 17 -134 -5 -192 -10 -27 -63 -111 -118 -187
-54 -77 -103 -145 -107 -152 -6 -11 17 -12 128 -6 l136 7 0 -60 c0 -55 -2 -61
-22 -66 -13 -3 -114 -9 -225 -13 l-203 -7 0 60 c0 58 2 63 63 144 186 248 237
330 237 384 0 89 -155 85 -175 -5 -6 -30 -8 -30 -71 -30 -72 0 -73 2 -52 72
16 55 79 123 131 141 50 18 118 21 169 7z m3775 -32 c-3 -8 -6 -5 -6 6 -1 11
2 17 5 13 3 -3 4 -12 1 -19z m-8420 -80 c-3 -7 -5 -2 -5 12 0 14 2 19 5 13 2
-7 2 -19 0 -25z m6550 -674 c-3 -3 -12 -4 -19 -1 -8 3 -5 6 6 6 11 1 17 -2 13
-5z m-3559 -231 c-10 -2 -26 -2 -35 0 -10 3 -2 5 17 5 19 0 27 -2 18 -5z
m2465 0 c-7 -2 -21 -2 -30 0 -10 3 -4 5 12 5 17 0 24 -2 18 -5z m-2305 -20
c-10 -2 -28 -2 -40 0 -13 2 -5 4 17 4 22 1 32 -1 23 -4z m2160 0 c-10 -2 -28
-2 -40 0 -13 2 -5 4 17 4 22 1 32 -1 23 -4z m-2091 -35 c-3 -8 -6 -5 -6 6 -1
11 2 17 5 13 3 -3 4 -12 1 -19z m1940 -90 c-3 -8 -6 -5 -6 6 -1 11 2 17 5 13
3 -3 4 -12 1 -19z m-1920 -25 c-3 -10 -5 -4 -5 12 0 17 2 24 5 18 2 -7 2 -21
0 -30z m3947 -429 c3 -8 2 -12 -4 -9 -6 3 -10 10 -10 16 0 14 7 11 14 -7z"/>
<path d="M10614 18482 c-12 -9 -27 -28 -34 -41 -18 -36 -26 -262 -10 -301 32
-78 163 -80 200 -3 8 18 15 78 18 165 l4 137 -30 31 c-26 25 -38 30 -79 30
-30 0 -56 -7 -69 -18z"/>
<path d="M7924 18179 l-61 -19 21 -75 c14 -51 26 -75 36 -75 30 0 143 39 161
56 25 23 24 74 -2 108 -25 32 -65 33 -155 5z"/>
<path d="M13799 17598 c-22 -44 -39 -81 -37 -83 2 -1 37 -19 78 -39 66 -32 79
-35 106 -26 33 11 64 55 64 90 0 39 -19 58 -95 98 l-76 40 -40 -80z"/>
<path d="M9880 17373 c-304 -14 -723 -67 -1055 -134 -1318 -263 -2547 -913
-3519 -1860 -383 -374 -666 -713 -961 -1154 -881 -1318 -1290 -2902 -1160
-4500 78 -959 352 -1897 800 -2735 654 -1224 1637 -2221 2843 -2885 157 -85
511 -257 672 -325 217 -92 531 -203 760 -269 1116 -321 2321 -365 3440 -125
1574 337 2952 1170 3980 2404 852 1024 1401 2282 1570 3602 153 1197 3 2408
-435 3513 -166 419 -341 768 -573 1140 -446 716 -1023 1352 -1697 1871 -580
447 -1243 810 -1930 1054 -629 225 -1304 361 -1980 400 -154 9 -593 11 -755 3z
m485 -617 c152 -48 178 -70 595 -482 l385 -380 45 12 c64 17 185 17 255 -1
218 -57 365 -252 366 -485 1 -147 -49 -260 -162 -364 -316 -293 -830 -69 -832
364 0 41 5 99 13 129 l13 53 -354 354 c-236 236 -369 362 -402 379 -65 36
-147 43 -218 20 -50 -16 -80 -43 -425 -387 l-371 -369 14 -52 c41 -160 -6
-344 -119 -463 -199 -210 -515 -216 -717 -13 -271 270 -152 723 218 833 66 19
188 21 258 3 l51 -14 359 359 c197 198 386 380 420 404 178 129 401 166 608
100z m-2590 -1610 c107 -28 129 -47 538 -454 l397 -397 -287 -287 c-159 -159
-293 -288 -298 -288 -6 0 -186 177 -401 393 -356 358 -393 398 -418 455 -53
120 -52 240 2 355 82 176 284 272 467 223z m5110 -1 c258 -68 388 -345 271
-580 -32 -63 -72 -107 -426 -460 l-390 -390 -292 293 -293 292 383 383 c234
234 404 396 435 415 97 58 205 75 312 47z m-2440 -159 c72 -20 187 -73 252
-117 68 -45 4045 -4021 4095 -4092 51 -75 103 -185 125 -267 13 -48 18 -102
18 -210 0 -124 -3 -156 -23 -220 -28 -89 -81 -198 -127 -260 -60 -81 -4031
-4042 -4098 -4087 -131 -89 -282 -133 -458 -133 -173 0 -324 46 -466 141 -27
17 -947 930 -2046 2028 -1426 1425 -2012 2017 -2048 2068 -58 85 -91 155 -121
261 -30 107 -30 303 0 414 27 99 79 206 142 288 27 36 941 957 2032 2047 2121
2119 2043 2044 2205 2107 114 45 185 56 328 52 79 -2 153 -10 190 -20z m-3530
-815 c63 -31 106 -70 458 -420 213 -212 387 -390 387 -396 0 -5 -130 -140
-288 -298 l-289 -289 -394 394 c-430 428 -439 440 -462 572 -34 200 79 384
282 462 24 9 71 13 136 11 92 -2 107 -5 170 -36z m6986 6 c108 -52 188 -143
224 -256 26 -80 18 -206 -20 -291 -26 -60 -60 -97 -424 -463 l-396 -397 -292
292 -293 293 377 378 c208 208 397 392 421 409 77 54 134 69 247 65 84 -3 109
-7 156 -30z m-7988 -927 c38 -12 89 -38 124 -64 32 -24 222 -209 423 -410
l365 -366 -293 -292 -292 -293 -395 395 c-470 469 -460 455 -460 635 0 98 3
116 27 167 92 196 299 290 501 228z m8931 -18 c170 -80 268 -259 238 -438 -22
-134 -29 -143 -458 -574 l-394 -395 -292 292 -293 293 380 381 c209 209 400
394 424 411 71 50 142 69 243 64 71 -3 98 -9 152 -34z m625 -1013 c152 -35
290 -157 352 -310 29 -73 37 -233 15 -304 l-16 -50 376 -375 c206 -207 391
-398 409 -425 19 -28 48 -84 64 -126 74 -189 66 -368 -26 -559 l-45 -95 -388
-390 -387 -390 13 -50 c8 -27 14 -84 14 -126 0 -127 -43 -236 -130 -332 -273
-299 -762 -169 -856 229 -60 255 104 522 363 589 73 19 186 19 249 0 l49 -15
363 363 c251 251 369 376 385 407 31 63 31 177 -1 237 -12 24 -169 189 -382
403 -306 306 -365 361 -383 356 -12 -4 -53 -11 -92 -17 -193 -32 -407 78 -502
257 -177 333 59 732 432 733 44 0 100 -4 124 -10z m-10279 -139 c197 -32 371
-195 411 -388 18 -86 7 -214 -25 -293 -54 -132 -178 -247 -312 -289 -77 -23
-227 -27 -286 -6 l-36 13 -375 -376 c-406 -407 -401 -401 -401 -511 0 -110 -4
-104 398 -508 354 -356 372 -373 401 -367 107 22 153 25 219 15 201 -30 376
-194 417 -388 18 -86 7 -214 -25 -293 -76 -188 -259 -310 -467 -310 -146 -1
-255 48 -363 161 -115 120 -159 286 -121 449 l16 65 -388 390 c-342 344 -393
400 -426 462 -104 200 -104 445 0 649 32 62 81 115 425 460 l388 390 -15 70
c-19 88 -19 144 0 223 46 196 207 347 405 382 65 11 87 11 160 0z m1345 -3590
l290 -290 -390 -390 c-361 -362 -395 -394 -464 -428 -72 -36 -79 -37 -181 -37
-102 0 -109 1 -182 38 -91 44 -146 102 -192 197 -54 114 -48 269 17 380 18 31
794 820 807 820 3 0 136 -131 295 -290z m8087 -98 c361 -362 389 -392 422
-460 81 -171 46 -356 -94 -485 -85 -79 -146 -101 -280 -102 -100 0 -109 2
-175 34 -64 31 -106 70 -463 425 l-392 390 292 293 c161 161 295 293 298 293
3 0 179 -175 392 -388z m-6862 -1137 c0 -6 -177 -187 -392 -401 -326 -325
-402 -395 -448 -417 -196 -91 -417 -31 -530 145 -77 119 -90 263 -34 390 25
57 64 99 428 466 l401 402 287 -287 c159 -158 288 -293 288 -298z m6342 -270
c31 -66 33 -76 33 -180 0 -105 -2 -113 -34 -177 -81 -162 -259 -256 -432 -229
-132 22 -139 27 -572 459 l-397 397 292 293 293 292 392 -392 c362 -363 394
-398 425 -463z m-5677 -385 l289 -289 -395 -394 c-322 -321 -405 -399 -451
-421 -205 -100 -448 -25 -551 172 -65 123 -67 256 -6 381 28 59 75 110 418
454 212 213 390 387 396 387 5 0 140 -130 300 -290z m4312 -102 c242 -244 399
-408 411 -433 112 -225 29 -472 -196 -578 -61 -29 -75 -32 -168 -32 -95 0
-103 2 -175 37 -69 34 -103 66 -464 428 l-390 390 290 290 c159 159 292 290
295 290 3 0 181 -177 397 -392z m-3629 -839 c78 -26 170 -86 221 -147 102
-119 145 -297 107 -442 l-15 -55 362 -364 c399 -401 412 -411 522 -411 107 0
119 10 520 408 l364 363 -15 67 c-79 333 218 654 558 603 199 -30 373 -190
417 -381 15 -64 13 -176 -3 -237 -45 -168 -173 -303 -333 -353 -74 -23 -207
-27 -279 -9 l-45 12 -382 -379 c-413 -409 -438 -430 -592 -481 -69 -23 -98
-27 -205 -27 -104 -1 -137 3 -200 22 -155 49 -173 63 -595 482 l-390 387 -40
-13 c-22 -7 -81 -13 -131 -13 -122 -1 -199 23 -295 92 -203 145 -265 408 -151
637 59 120 218 236 352 259 74 13 171 5 248 -20z"/>
<path d="M8758 15600 c-53 -16 -97 -51 -117 -94 -61 -125 25 -266 161 -266
166 1 246 194 129 311 -49 50 -112 67 -173 49z"/>
<path d="M11468 15600 c-164 -49 -187 -264 -37 -340 69 -36 171 -19 221 37 25
28 48 88 48 125 -1 76 -64 157 -138 178 -42 11 -56 11 -94 0z"/>
<path d="M6205 11158 c-3 -7 -4 -368 -3 -803 l3 -790 155 0 155 0 0 800 0 800
-153 3 c-116 2 -154 0 -157 -10z"/>
<path d="M7061 11159 c-160 -31 -318 -172 -358 -319 -16 -58 -18 -111 -18
-486 l0 -421 44 -89 c70 -141 156 -214 306 -261 53 -16 98 -18 400 -18 l340 0
0 140 0 140 -325 5 c-345 5 -357 7 -402 57 -45 50 -48 75 -48 426 0 362 5 407
57 475 51 68 44 66 398 72 l320 5 0 140 0 140 -335 1 c-184 1 -355 -2 -379 -7z"/>
<path d="M9307 11159 c-111 -26 -192 -119 -217 -248 -6 -32 -10 -272 -10 -600
l0 -546 24 -50 c25 -54 73 -107 121 -133 27 -15 80 -17 495 -17 l465 0 3 142
3 143 -393 2 -393 3 -3 174 c-2 119 1 178 9 187 9 11 77 14 370 14 l359 0 0
145 0 145 -359 0 c-293 0 -361 3 -370 14 -8 9 -11 65 -9 177 l3 164 390 5 390
5 0 140 0 140 -420 2 c-231 0 -437 -3 -458 -8z"/>
<path d="M10362 10368 l3 -803 155 0 155 0 3 278 2 277 214 0 c118 0 250 5
293 11 181 24 289 120 339 300 24 87 29 260 11 364 -36 204 -139 323 -313 360
-54 11 -157 15 -467 15 l-397 0 2 -802z m819 502 c10 -6 29 -30 41 -53 21 -37
23 -56 23 -172 0 -124 -1 -132 -28 -177 -16 -27 -37 -50 -50 -53 -12 -3 -125
-4 -252 -3 l-230 3 -3 233 -2 232 240 0 c147 0 249 -4 261 -10z"/>
<path d="M12180 11161 c-94 -29 -197 -115 -240 -201 -37 -74 -50 -142 -50
-263 0 -208 66 -349 194 -414 75 -38 178 -52 386 -53 208 0 236 -7 277 -69 31
-46 33 -165 3 -227 -41 -83 -14 -78 -449 -84 l-386 -5 -3 -120 c-1 -66 0 -130
3 -143 l6 -23 442 3 442 3 55 30 c160 87 234 233 232 455 -2 272 -94 418 -292
464 -47 11 -121 16 -268 16 -215 0 -248 6 -287 50 -16 17 -21 39 -23 105 -4
90 5 119 53 168 l27 27 347 2 346 3 3 143 3 142 -398 -1 c-219 0 -409 -4 -423
-8z"/>
<path d="M13458 11156 c-90 -24 -156 -87 -195 -186 -16 -41 -18 -96 -21 -617
-2 -366 1 -587 7 -611 15 -54 66 -118 119 -150 l47 -27 465 0 465 0 0 140 0
140 -390 5 -390 5 -3 176 c-2 139 0 179 11 187 10 8 123 13 368 14 l354 3 0
140 0 140 -365 5 c-201 3 -366 7 -368 8 -1 1 -1 80 0 175 l3 172 390 5 390 5
0 140 0 140 -420 2 c-314 1 -432 -1 -467 -11z"/>
<path d="M7950 9935 l0 -795 130 0 130 0 2 208 3 207 185 6 c214 8 282 24 371
88 90 64 143 150 181 289 17 62 21 107 21 227 0 167 -19 263 -70 356 -55 102
-168 179 -290 199 -32 6 -194 10 -360 10 l-303 0 0 -795z m639 511 c37 -19 99
-90 117 -132 10 -23 14 -75 14 -169 0 -124 -2 -140 -24 -183 -28 -54 -79 -106
-119 -121 -40 -16 -340 -14 -355 1 -9 9 -12 89 -12 299 0 158 3 294 6 303 5
14 30 16 176 16 127 0 176 -4 197 -14z"/>
<path d="M11114 9847 c-2 -7 -3 -74 -2 -148 l3 -134 145 0 145 0 0 145 0 145
-143 3 c-111 2 -144 0 -148 -11z"/>
<path d="M15295 11908 c-84 -30 -130 -103 -123 -194 11 -129 144 -201 265
-143 46 22 85 77 98 136 16 78 -49 179 -130 202 -48 13 -70 13 -110 -1z"/>
<path d="M15300 9198 c-53 -15 -86 -44 -110 -94 -60 -122 26 -264 159 -264
161 0 245 189 137 308 -43 48 -122 69 -186 50z"/>
<path d="M5040 11754 c-69 -30 -110 -93 -110 -169 0 -167 208 -245 319 -120
26 30 51 89 51 120 0 32 -25 90 -53 122 -54 61 -132 79 -207 47z"/>
<path d="M5040 9044 c-69 -30 -110 -93 -110 -169 0 -167 208 -245 319 -120 26
30 51 89 51 120 0 34 -26 92 -57 126 -52 57 -131 74 -203 43z"/>
<path d="M8880 5354 c-73 -32 -110 -86 -110 -163 0 -87 31 -138 105 -172 114
-53 243 22 253 146 6 69 -1 96 -35 136 -52 62 -141 84 -213 53z"/>
<path d="M11584 5351 c-64 -29 -98 -81 -102 -155 -2 -49 2 -68 20 -101 59
-101 189 -123 279 -48 81 68 85 198 7 270 -56 52 -135 65 -204 34z"/>
<path d="M15688 16306 l-57 -61 65 -58 c78 -68 113 -75 157 -29 45 47 38 85
-30 154 -32 32 -62 57 -68 57 -5 -1 -36 -29 -67 -63z"/>
<path d="M4522 15935 c29 -58 55 -105 58 -105 3 0 30 25 60 55 l54 55 -107 50
c-58 27 -108 50 -111 50 -3 0 18 -47 46 -105z"/>
<path d="M16111 15899 l-64 -59 43 -47 c82 -92 112 -103 164 -62 61 48 52 102
-30 181 l-49 46 -64 -59z"/>
<path d="M3184 14496 c-28 -28 -34 -41 -34 -78 0 -24 7 -53 15 -65 8 -11 63
-49 122 -84 86 -51 116 -64 150 -64 50 0 88 31 104 85 20 66 -4 97 -134 174
-136 80 -170 85 -223 32z"/>
<path d="M2680 13490 c-34 -37 -44 -81 -26 -123 18 -44 28 -51 150 -102 131
-55 172 -58 214 -16 36 36 46 81 28 124 -18 44 -28 51 -150 102 -132 55 -176
58 -216 15z"/>
<path d="M17947 12038 c3 -18 11 -54 17 -80 l11 -48 97 58 c54 32 100 61 103
64 3 3 -40 11 -97 18 -57 6 -111 14 -120 16 -15 5 -17 0 -11 -28z"/>
<path d="M18104 11029 c3 -34 6 -70 6 -80 0 -22 1 -21 135 41 l90 42 -115 29
c-63 15 -117 28 -119 29 -2 0 -1 -28 3 -61z"/>
<path d="M9977 2538 c-31 -24 -37 -68 -37 -262 0 -180 1 -195 20 -219 26 -33
78 -44 117 -25 46 22 55 67 51 280 -3 181 -4 187 -27 212 -19 20 -34 26 -66
26 -23 0 -49 -6 -58 -12z"/>
<path d="M9535 383 c10 -55 33 -93 61 -103 15 -6 277 -10 652 -10 553 0 630 2
650 16 26 18 47 56 55 102 l7 32 -716 0 -716 0 7 -37z"/>
</g>
</svg>
